<svg width="24" height="25" viewBox="0 0 24 25" fill="none" xmlns="http://www.w3.org/2000/svg">
<path d="M7.71429 16.4318V18.4773C7.71429 18.7614 7.61012 19.0028 7.40179 19.2017C7.19345 19.4006 6.94048 19.5 6.64286 19.5H3.07143C2.77381 19.5 2.52083 19.4006 2.3125 19.2017C2.10417 19.0028 2 18.7614 2 18.4773V16.4318C2 16.1477 2.10417 15.9062 2.3125 15.7074C2.52083 15.5085 2.77381 15.4091 3.07143 15.4091H6.64286C6.94048 15.4091 7.19345 15.5085 7.40179 15.7074C7.61012 15.9062 7.71429 16.1477 7.71429 16.4318ZM7.71429 10.9773V13.0227C7.71429 13.3068 7.61012 13.5483 7.40179 13.7472C7.19345 13.946 6.94048 14.0455 6.64286 14.0455H3.07143C2.77381 14.0455 2.52083 13.946 2.3125 13.7472C2.10417 13.5483 2 13.3068 2 13.0227V10.9773C2 10.6932 2.10417 10.4517 2.3125 10.2528C2.52083 10.054 2.77381 9.95455 3.07143 9.95455H6.64286C6.94048 9.95455 7.19345 10.054 7.40179 10.2528C7.61012 10.4517 7.71429 10.6932 7.71429 10.9773ZM22 16.4318V18.4773C22 18.7614 21.8958 19.0028 21.6875 19.2017C21.4792 19.4006 21.2262 19.5 20.9286 19.5H10.2143C9.91667 19.5 9.66369 19.4006 9.45536 19.2017C9.24702 19.0028 9.14286 18.7614 9.14286 18.4773V16.4318C9.14286 16.1477 9.24702 15.9062 9.45536 15.7074C9.66369 15.5085 9.91667 15.4091 10.2143 15.4091H20.9286C21.2262 15.4091 21.4792 15.5085 21.6875 15.7074C21.8958 15.9062 22 16.1477 22 16.4318ZM7.71429 5.52273V7.56818C7.71429 7.85227 7.61012 8.09375 7.40179 8.29261C7.19345 8.49148 6.94048 8.59091 6.64286 8.59091H3.07143C2.77381 8.59091 2.52083 8.49148 2.3125 8.29261C2.10417 8.09375 2 7.85227 2 7.56818V5.52273C2 5.23864 2.10417 4.99716 2.3125 4.7983C2.52083 4.59943 2.77381 4.5 3.07143 4.5H6.64286C6.94048 4.5 7.19345 4.59943 7.40179 4.7983C7.61012 4.99716 7.71429 5.23864 7.71429 5.52273ZM22 10.9773V13.0227C22 13.3068 21.8958 13.5483 21.6875 13.7472C21.4792 13.946 21.2262 14.0455 20.9286 14.0455H10.2143C9.91667 14.0455 9.66369 13.946 9.45536 13.7472C9.24702 13.5483 9.14286 13.3068 9.14286 13.0227V10.9773C9.14286 10.6932 9.24702 10.4517 9.45536 10.2528C9.66369 10.054 9.91667 9.95455 10.2143 9.95455H20.9286C21.2262 9.95455 21.4792 10.054 21.6875 10.2528C21.8958 10.4517 22 10.6932 22 10.9773ZM22 5.52273V7.56818C22 7.85227 21.8958 8.09375 21.6875 8.29261C21.4792 8.49148 21.2262 8.59091 20.9286 8.59091H10.2143C9.91667 8.59091 9.66369 8.49148 9.45536 8.29261C9.24702 8.09375 9.14286 7.85227 9.14286 7.56818V5.52273C9.14286 5.23864 9.24702 4.99716 9.45536 4.7983C9.66369 4.59943 9.91667 4.5 10.2143 4.5H20.9286C21.2262 4.5 21.4792 4.59943 21.6875 4.7983C21.8958 4.99716 22 5.23864 22 5.52273Z" fill="#91A0B6"/>
</svg>
