<svg width="24" height="25" viewBox="0 0 24 25" fill="none" xmlns="http://www.w3.org/2000/svg">
<path d="M4.5 21.1875H8.25V14.9375C8.25 14.5833 8.37 14.2867 8.61 14.0475C8.85 13.8083 9.14667 13.6883 9.5 13.6875H14.5C14.8542 13.6875 15.1512 13.8075 15.3912 14.0475C15.6312 14.2875 15.7508 14.5842 15.75 14.9375V21.1875H19.5V9.9375L12 4.3125L4.5 9.9375V21.1875ZM2 21.1875V9.9375C2 9.54167 2.08875 9.16667 2.26625 8.8125C2.44375 8.45833 2.68833 8.16667 3 7.9375L10.5 2.3125C10.9375 1.97917 11.4375 1.8125 12 1.8125C12.5625 1.8125 13.0625 1.97917 13.5 2.3125L21 7.9375C21.3125 8.16667 21.5575 8.45833 21.735 8.8125C21.9125 9.16667 22.0008 9.54167 22 9.9375V21.1875C22 21.875 21.755 22.4637 21.265 22.9537C20.775 23.4437 20.1867 23.6883 19.5 23.6875H14.5C14.1458 23.6875 13.8492 23.5675 13.61 23.3275C13.3708 23.0875 13.2508 22.7908 13.25 22.4375V16.1875H10.75V22.4375C10.75 22.7917 10.63 23.0887 10.39 23.3287C10.15 23.5687 9.85333 23.6883 9.5 23.6875H4.5C3.8125 23.6875 3.22417 23.4429 2.735 22.9537C2.24583 22.4646 2.00083 21.8758 2 21.1875Z" fill="#EDA92D"/>
</svg>
