<svg width="36" height="36" viewBox="0 0 36 36" fill="none" xmlns="http://www.w3.org/2000/svg">
<path fill-rule="evenodd" clip-rule="evenodd" d="M25.7636 9.21287C25.8227 9.31617 25.9261 9.38995 26.0591 9.38995C29.6045 9.38995 32.5 12.2822 32.5 15.8237V24.589C32.5 28.1305 29.6045 31.0227 26.0591 31.0227H9.39544C5.83521 31.0227 2.95453 28.1305 2.95453 24.589V15.8237C2.95453 12.2822 5.83521 9.38995 9.39544 9.38995C9.51362 9.38995 9.6318 9.33093 9.67612 9.21287L9.76476 9.0358C9.81569 8.92859 9.86797 8.81847 9.92104 8.70668C10.299 7.91067 10.717 7.03004 10.9761 6.51247C11.6557 5.1844 12.8079 4.44658 14.2409 4.43182H21.1988C22.6318 4.44658 23.7988 5.1844 24.4784 6.51247C24.7111 6.97733 25.0656 7.72616 25.4073 8.44787C25.4778 8.59672 25.5477 8.74442 25.6159 8.88824L25.7636 9.21287ZM24.6852 14.8793C24.6852 15.6171 25.2761 16.2074 26.0148 16.2074C26.7534 16.2074 27.3591 15.6171 27.3591 14.8793C27.3591 14.1415 26.7534 13.5365 26.0148 13.5365C25.2761 13.5365 24.6852 14.1415 24.6852 14.8793ZM15.1716 17.1665C15.8659 16.473 16.767 16.1041 17.7273 16.1041C18.6875 16.1041 19.5886 16.473 20.2682 17.1518C20.9477 17.8306 21.317 18.7307 21.317 19.6899C21.3023 21.6672 19.7068 23.2757 17.7273 23.2757C16.767 23.2757 15.8659 22.9067 15.1863 22.228C14.5068 21.5492 14.1375 20.649 14.1375 19.6899V19.6751C14.1227 18.7455 14.492 17.8453 15.1716 17.1665ZM21.8193 23.7921C20.7704 24.8398 19.3227 25.4891 17.7273 25.4891C16.1761 25.4891 14.7284 24.8841 13.6204 23.7921C12.5273 22.6854 11.9216 21.2393 11.9216 19.6899C11.9068 18.1552 12.5125 16.7091 13.6057 15.6024C14.7136 14.4956 16.1761 13.8906 17.7273 13.8906C19.2784 13.8906 20.7409 14.4956 21.8341 15.5876C22.9273 16.6943 23.5329 18.1552 23.5329 19.6899C23.5182 21.2983 22.8682 22.7444 21.8193 23.7921Z" fill="white"/>
</svg>
