<svg width="24" height="25" viewBox="0 0 24 25" fill="none" xmlns="http://www.w3.org/2000/svg">
<path d="M21.1592 17.602L17.7962 14.2347C18.3057 13.1122 18.6115 11.9898 18.6115 10.7653C18.6115 8.52041 17.7962 6.47959 16.1656 4.94898C12.9045 1.68367 7.70701 1.68367 4.44586 4.94898C1.18471 8.21429 1.18471 13.4184 4.44586 16.6837C5.97452 18.2143 8.11465 19.1327 10.2548 19.1327C11.4777 19.1327 12.7006 18.8265 13.7197 18.3163L17.0828 21.6837C17.5924 22.1939 18.4076 22.5 19.121 22.5C19.8344 22.5 20.5478 22.1939 21.1592 21.6837C22.2803 20.4592 22.2803 18.6224 21.1592 17.602ZM5.87261 15.051C3.42675 12.602 3.42675 8.62245 5.87261 6.27551C7.09554 5.05102 8.6242 4.43878 10.2548 4.43878C11.8854 4.43878 13.414 5.05102 14.6369 6.27551C15.8599 7.5 16.4713 9.03061 16.4713 10.6633C16.4713 12.2959 15.8599 13.9286 14.6369 15.051C13.414 16.1735 11.8854 16.8878 10.2548 16.8878C8.6242 16.8878 6.99363 16.2755 5.87261 15.051Z" fill="#91A0B6"/>
</svg>
